PathFileType	4	(X/Y/Z)	/Users/itak/Documents/Research/Walk-IL/dataset/trc/00011_00004.trc
DataRate	CameraRate	NumFrames	NumMarkers	Units	OrigDataRate	OrigDataStartFrame	OrigNumFrames
100.000000	100.000000	4	53	mm	100.000000	482	551
Frame#	Time	RPSI			LPSI			L3			STRN			T10			C7			CLAV			RBAK			LBAK			LSHO			LUPA			LAEL			LAOL			LWTS			LWPS			LFRA			LIFD			LHPS			LHTS			RSHO			RUPA			RAEL			RAOL			RWTS			RWPS			RFRA			RIFD			RHTS			RHPS			RBHD			LFHD			RFHD			LBHD			LHIP			RHIP			RASI			LASI			LKNE			LTHI			LANK			LTIP			LTOE			LMT1			LMT5			LHEE			RKNE			RTHI			RANK			RTIP			RTOE			RMT1			RMT5			RHEE			
		X1	Y1	Z1	X2	Y2	Z2	X3	Y3	Z3	X4	Y4	Z4	X5	Y5	Z5	X6	Y6	Z6	X7	Y7	Z7	X8	Y8	Z8	X9	Y9	Z9	X10	Y10	Z10	X11	Y11	Z11	X12	Y12	Z12	X13	Y13	Z13	X14	Y14	Z14	X15	Y15	Z15	X16	Y16	Z16	X17	Y17	Z17	X18	Y18	Z18	X19	Y19	Z19	X20	Y20	Z20	X21	Y21	Z21	X22	Y22	Z22	X23	Y23	Z23	X24	Y24	Z24	X25	Y25	Z25	X26	Y26	Z26	X27	Y27	Z27	X28	Y28	Z28	X29	Y29	Z29	X30	Y30	Z30	X31	Y31	Z31	X32	Y32	Z32	X33	Y33	Z33	X34	Y34	Z34	X35	Y35	Z35	X36	Y36	Z36	X37	Y37	Z37	X38	Y38	Z38	X39	Y39	Z39	X40	Y40	Z40	X41	Y41	Z41	X42	Y42	Z42	X43	Y43	Z43	X44	Y44	Z44	X45	Y45	Z45	X46	Y46	Z46	X47	Y47	Z47	X48	Y48	Z48	X49	Y49	Z49	X50	Y50	Z50	X51	Y51	Z51	X52	Y52	Z52	X53	Y53	Z53	

483	4.82	-1088.0849609375	1067.453125	-114.4225463867188	-1109.057006835938	1063.864624023438	-277.0147399902344	-1103.362426757812	1123.178588867188	-204.8199615478516	-882.99609375	1324.411743164062	-217.735595703125	-1132.266357421875	1269.156982421875	-204.9337463378906	-1092.857177734375	1538.10693359375	-217.4865417480469	-929.7460327148438	1449.290893554688	-219.3609008789062	-1135.444580078125	1398.291137695312	-135.9597778320312	-1112.040161132812	1495.818237304688	-314.5884399414062	-1012.799133300781	1506.240356445312	-393.2076110839844	-1046.181030273438	1381.610717773438	-468.2990112304688	-1052.510131835938	1164.396728515625	-495.8809509277344	-1103.396362304688	1153.045166015625	-402.9663391113281	-983.4179077148438	902.7469482421875	-449.4973449707031	-1062.46484375	896.7769775390625	-488.3218994140625	-1047.810180664062	1047.839965820312	-504.2619018554688	-972.822998046875	715.3159790039062	-437.7709045410156	-1037.620727539062	804.5228881835938	-491.0632934570312	-971.1665649414062	807.7362670898438	-466.3958435058594	-1007.790588378906	1525.774658203125	-46.5008544921875	-1017.030883789062	1453.250366210938	26.77741622924805	-1046.980102539062	1184.652099609375	49.82223892211914	-1051.715087890625	1156.316650390625	-46.68761444091797	-920.8463134765625	923.4280395507812	20.45834541320801	-987.2797241210938	911.8397216796875	84.94089508056641	-1033.739624023438	1109.804077148438	65.35808563232422	-908.5737915039062	734.6914672851562	15.13199996948242	-892.6549072265625	812.2138061523438	38.64642715454102	-949.4456787109375	811.4620971679688	87.04996490478516	-1035.871948242188	1719.423217773438	-136.5558929443359	-864.7109985351562	1738.734252929688	-259.8649597167969	-862.8488159179688	1736.519775390625	-161.5824890136719	-1045.744262695312	1726.9306640625	-280.9600524902344	-1025.877075195312	965.86572265625	-394.8947448730469	-961.9669189453125	960.73876953125	-26.76908493041992	-870.0233764648438	992.6070556640625	-111.2205047607422	-901.8383178710938	1010.043029785156	-343.9947509765625	-991.4180908203125	521.7686157226562	-365.4487915039062	-1012.62939453125	658.5487060546875	-394.3484191894531	-1112.417114257812	43.53091049194336	-376.9172973632812	-1083.648559570312	292.6261596679688	-386.0435485839844	-889.7766723632812	40.813232421875	-319.5958557128906	-949.189697265625	50.09648513793945	-300.6962585449219	-988.1319580078125	40.98168182373047	-399.83544921875	-1179.725341796875	50.70635604858398	-320.3757629394531	-967.5126342773438	524.6115112304688	-88.37600708007812	-941.8406372070312	791.6525268554688	-35.62911605834961	-1091.778076171875	44.81142044067383	-121.5147552490234	-995.2362060546875	400.90625	-89.52708435058594	-859.5056762695312	46.83832168579102	-160.5950012207031	-921.890625	50.27864074707031	-192.0807037353516	-941.9495239257812	44.70820999145508	-96.82396697998047	-1147.119750976562	45.87767028808594	-167.4619750976562	
484	4.83	-1088.93359375	1067.438720703125	-115.2984848022461	-1109.7470703125	1063.73681640625	-277.9324951171875	-1104.202270507812	1123.142944335938	-205.6794891357422	-884.0050048828125	1324.602661132812	-218.5770263671875	-1133.159545898438	1269.090698242188	-205.73828125	-1094.040771484375	1538.095336914062	-218.4186553955078	-930.7981567382812	1449.414672851562	-220.2723236083984	-1136.439453125	1398.230102539062	-136.7481842041016	-1113.234985351562	1495.73193359375	-315.4281921386719	-1013.999633789062	1506.284301757812	-394.0636901855469	-1047.347412109375	1381.661865234375	-469.197021484375	-1053.595581054688	1164.457153320312	-496.8483581542969	-1104.461303710938	1153.0498046875	-403.9400939941406	-983.9887084960938	903.0051879882812	-450.4683532714844	-1063.081420898438	896.8268432617188	-489.2794494628906	-1048.71240234375	1047.905883789062	-505.2372131347656	-972.9612426757812	715.5450439453125	-438.728271484375	-1037.987548828125	804.6242065429688	-492.0071411132812	-971.5607299804688	807.9721069335938	-467.3184814453125	-1008.905822753906	1525.923095703125	-47.40634536743164	-1017.95361328125	1453.361694335938	25.89845848083496	-1047.001708984375	1184.563842773438	48.69485473632812	-1051.958618164062	1156.382690429688	-47.84066390991211	-919.0662231445312	924.31640625	18.18973159790039	-985.1712646484375	911.9688110351562	82.84497833251953	-1033.278442382812	1109.669067382812	64.01849365234375	-905.17529296875	735.7786254882812	12.20334434509277	-889.8972778320312	813.2789916992188	35.86761474609375	-946.505859375	811.9337158203125	84.49061584472656	-1037.242553710938	1719.452026367188	-137.4152984619141	-865.9298095703125	1738.878662109375	-260.6016845703125	-864.1884765625	1736.584838867188	-162.2758941650391	-1046.9453125	1727.049682617188	-281.8023681640625	-1026.37939453125	965.7744750976562	-395.6919250488281	-962.855224609375	960.8893432617188	-27.52957153320312	-870.7391357421875	992.8145141601562	-111.9069213867188	-902.4609985351562	1010.132568359375	-344.6844482421875	-991.66650390625	521.6434936523438	-365.8312072753906	-1012.748168945312	658.4050903320312	-394.9139099121094	-1112.420043945312	43.46533203125	-376.9619140625	-1083.733764648438	292.513916015625	-386.3158264160156	-889.7702026367188	40.78836059570312	-319.5906982421875	-949.1886596679688	50.09550476074219	-300.701904296875	-988.138427734375	40.95637893676758	-399.8602600097656	-1179.755737304688	50.66112899780273	-320.4588623046875	-967.7786865234375	524.748779296875	-88.86611938476562	-942.403564453125	791.7813720703125	-36.27344512939453	-1091.786987304688	44.86284255981445	-121.559814453125	-995.37158203125	401.0478210449219	-89.93958282470703	-859.4877319335938	46.82794570922852	-160.6122741699219	-921.8954467773438	50.26714324951172	-192.1160430908203	-941.9472045898438	44.72120666503906	-96.85122680664062	-1147.123657226562	45.90476226806641	-167.5156402587891	
485	4.84	-1089.79541015625	1067.409912109375	-116.2107772827148	-1110.422119140625	1063.595092773438	-278.8944396972656	-1105.051025390625	1123.092529296875	-206.5753479003906	-885.00244140625	1324.766235351562	-219.4049835205078	-1134.016235351562	1269.00927734375	-206.5884704589844	-1095.201904296875	1538.078735351562	-219.32373046875	-931.823486328125	1449.526000976562	-221.1741333007812	-1137.400268554688	1398.1650390625	-137.530029296875	-1114.41162109375	1495.621704101562	-316.2632141113281	-1015.174865722656	1506.2802734375	-394.9139404296875	-1048.465576171875	1381.660400390625	-470.08740234375	-1054.599731445312	1164.466552734375	-497.8248291015625	-1105.473022460938	1152.986206054688	-404.9353332519531	-984.4149169921875	903.2141723632812	-451.4382019042969	-1063.533447265625	896.8248291015625	-490.2589721679688	-1049.502807617188	1047.922485351562	-506.2262268066406	-972.8720703125	715.8005981445312	-439.6881713867188	-1038.175659179688	804.6926879882812	-492.9794921875	-971.7435913085938	808.2193603515625	-468.2433471679688	-1009.986083984375	1526.055786132812	-48.30036163330078	-1018.844360351562	1453.46142578125	25.03440093994141	-1047.011474609375	1184.467651367188	47.63227081298828	-1052.240600585938	1156.432983398438	-48.92836761474609	-917.278564453125	925.233154296875	15.95419311523438	-983.0363159179688	912.1128540039062	80.78273773193359	-1032.801391601562	1109.525146484375	62.74357986450195	-901.7404174804688	736.894287109375	9.278162956237793	-887.1139526367188	814.3863525390625	33.11005401611328	-943.5165405273438	812.4238891601562	81.95168304443359	-1038.586303710938	1719.464721679688	-138.2985382080078	-867.1249389648438	1739.014770507812	-261.3511352539062	-865.5119018554688	1736.644653320312	-162.9716339111328	-1048.12060546875	1727.13427734375	-282.6669311523438	-1026.829345703125	965.6737060546875	-396.5138549804688	-963.7870483398438	961.0205078125	-28.2992992401123	-871.443359375	993.0158081054688	-112.6016464233398	-903.0554809570312	1010.214477539062	-345.3853149414062	-991.869140625	521.5216064453125	-366.1851501464844	-1012.861083984375	658.258056640625	-395.4511108398438	-1112.419921875	43.40453720092773	-376.9973449707031	-1083.810668945312	292.3977355957031	-386.5821533203125	-889.7623901367188	40.76234436035156	-319.5793762207031	-949.1858520507812	50.08724975585938	-300.6991271972656	-988.150390625	40.94254684448242	-399.8727722167969	-1179.791015625	50.61772918701172	-320.5255126953125	-968.0371704101562	524.880615234375	-89.35758972167969	-942.9410400390625	791.917724609375	-36.9501953125	-1091.79541015625	44.91585540771484	-121.61181640625	-995.5179443359375	401.1748046875	-90.36154937744141	-859.4710693359375	46.81945419311523	-160.6289215087891	-921.8983764648438	50.25419616699219	-192.1507263183594	-941.943115234375	44.73687744140625	-96.88201904296875	-1147.128051757812	45.9343376159668	-167.5743408203125	
486	4.850000000000001	-1090.662109375	1067.369262695312	-117.1509780883789	-1111.092163085938	1063.447387695312	-279.884521484375	-1105.900024414062	1123.027587890625	-207.4993743896484	-885.9832153320312	1324.905639648438	-220.2243499755859	-1134.838134765625	1268.916015625	-207.4757232666016	-1096.343872070312	1538.052978515625	-220.194580078125	-932.8313598632812	1449.625	-222.0642700195312	-1138.335083007812	1398.094848632812	-138.3075561523438	-1115.569091796875	1495.49072265625	-317.0917053222656	-1016.328002929688	1506.234252929688	-395.7589111328125	-1049.53515625	1381.610229492188	-470.96826171875	-1055.518676757812	1164.428466796875	-498.8025207519531	-1106.416381835938	1152.858154296875	-405.9440307617188	-984.7003173828125	903.3738403320312	-452.4058837890625	-1063.822021484375	896.7734375	-491.2548217773438	-1050.176147460938	1047.8935546875	-507.2218627929688	-972.5831298828125	716.0617065429688	-440.65478515625	-1038.200927734375	804.7305297851562	-493.9803771972656	-971.7412719726562	808.4760131835938	-469.178955078125	-1011.036254882812	1526.16943359375	-49.18083190917969	-1019.705444335938	1453.545532226562	24.18530654907227	-1047.015747070312	1184.35888671875	46.63181686401367	-1052.552734375	1156.461303710938	-49.94761657714844	-915.4974365234375	926.1755981445312	13.76817607879639	-980.883056640625	912.2702026367188	78.76418304443359	-1032.310913085938	1109.368896484375	61.53416442871094	-898.2900390625	738.0224609375	6.372352600097656	-884.3042602539062	815.53076171875	30.38808822631836	-940.484619140625	812.9331665039062	79.44654083251953	-1039.898315429688	1719.463989257812	-139.2032775878906	-868.303955078125	1739.134521484375	-262.1110229492188	-866.8157348632812	1736.698608398438	-163.6731567382812	-1049.268920898438	1727.186401367188	-283.5543823242188	-1027.24169921875	965.5704956054688	-397.354736328125	-964.7463989257812	961.1376342773438	-29.07108116149902	-872.1339111328125	993.2134399414062	-113.3036270141602	-903.6240844726562	1010.29150390625	-346.0998229980469	-992.0508422851562	521.4058227539062	-366.5180053710938	-1012.985534667969	658.115966796875	-395.9604797363281	-1112.41796875	43.34476089477539	-377.0294494628906	-1083.894287109375	292.2802429199219	-386.847412109375	-889.751220703125	40.73529815673828	-319.5634765625	-949.1815185546875	50.07419204711914	-300.6913452148438	-988.1654052734375	40.93489456176758	-399.8779907226562	-1179.833740234375	50.57755279541016	-320.5818176269531	-968.2887573242188	525.0114135742188	-89.84063720703125	-943.4449462890625	792.0675659179688	-37.65592193603516	-1091.802001953125	44.96926879882812	-121.6707229614258	-995.6771240234375	401.2883911132812	-90.79533386230469	-859.4550170898438	46.81228256225586	-160.6441955566406	-921.8997192382812	50.24081420898438	-192.1841735839844	-941.9385986328125	44.75422668457031	-96.91569519042969	-1147.134521484375	45.96664810180664	-167.6377105712891	
